<?xml version="1.0" encoding="utf-8"?>
<!-- Generator: Adobe Illustrator 25.2.0, SVG Export Plug-In . SVG Version: 6.00 Build 0)  -->
<svg version="1.1" id="Layer_1" xmlns="http://www.w3.org/2000/svg" xmlns:xlink="http://www.w3.org/1999/xlink" x="0px" y="0px"
	 viewBox="0 0 1024 1024" style="enable-background:new 0 0 1024 1024;" xml:space="preserve">
<style type="text/css">
	.st0{fill:#C9C9C9;}
	.st1{fill:#FFFFFF;}
</style>
<path id="Rounded_Rectangle_2" class="st0" d="M236,0h552c130.3,0,236,105.7,236,236v552c0,130.3-105.7,236-236,236H236
	C105.7,1024,0,918.3,0,788V236C0,105.7,105.7,0,236,0z"/>
<path id="Rounded_Rectangle_1" class="st1" d="M345,157h94c14.9,0,27,12.1,27,27l0,0v83c0,17.7-14.3,32-32,32h-89
	c-14.9,0-27-12.1-27-27l0,0v-88C318,169.1,330.1,157,345,157L345,157z"/>
<path id="Rounded_Rectangle_1_copy" class="st1" d="M585,157h94c14.9,0,27,12.1,27,27l0,0v83c0,17.7-14.3,32-32,32h-89
	c-14.9,0-27-12.1-27-27l0,0v-88C558,169.1,570.1,157,585,157L585,157z"/>
<path id="Rounded_Rectangle_1_copy_2" class="st1" d="M345,359h89c17.7,0,32,14.3,32,32v449c0,14.9-12.1,27-27,27h-94
	c-14.9,0-27-12.1-27-27V386C318,371.1,330.1,359,345,359L345,359z"/>
<path id="Rounded_Rectangle_1_copy_2-2" class="st1" d="M585,359h89c17.7,0,32,14.3,32,32v449c0,14.9-12.1,27-27,27h-94
	c-14.9,0-27-12.1-27-27V386C558,371.1,570.1,359,585,359L585,359z"/>
</svg>
